<svg width="143" height="86" viewBox="0 0 143 86" fill="none" xmlns="http://www.w3.org/2000/svg">
<path fill-rule="evenodd" clip-rule="evenodd" d="M30.6581 0.609647C32.1345 -0.194079 32.9685 -0.212302 34.4871 0.609647L63.0417 16.1399C64.6836 17.0341 64.6937 17.5329 63.0417 18.4271L34.4854 33.9583C33.007 34.7595 32.0465 34.708 30.6598 33.9583L2.10511 18.428C0.477183 17.5367 0.466328 17.0277 2.10511 16.139L30.6581 0.609647ZM34.4871 2.98687C32.9918 2.17641 32.1416 2.17383 30.6581 2.98717L6.30072 16.2386C4.79025 17.0555 4.80718 17.513 6.30072 18.3284L30.6598 31.5808C32.1582 32.3994 32.9826 32.3963 34.4854 31.5811L58.6707 18.4271C60.3145 17.5355 60.3356 17.047 58.6707 16.1399L34.4871 2.98687Z" fill="white"/>
<path fill-rule="evenodd" clip-rule="evenodd" d="M34.4822 47.5069C32.9874 48.3231 32.1138 48.3045 30.663 47.5069L0.33514 31.0122C0.0710085 31.4357 -0.00909656 31.9405 0.000801391 32.6444V65.3536C0.00168784 66.8982 0.417504 67.5408 1.79843 68.3379L30.7761 85.0253C32.1231 85.8017 32.9833 85.8302 34.3691 85.0253L63.3468 68.3379C64.7475 67.5408 65.147 66.8914 65.1444 65.3536V32.6444C65.1425 31.9354 65.0482 31.4327 64.7957 31.02L34.4822 47.5069ZM34.4822 49.8474L63.043 34.3636V65.3536C63.0478 65.9402 62.8892 66.1984 62.305 66.5266L34.3691 82.6067C34.0969 82.7611 33.8508 82.887 33.6206 82.9839V50.242C33.8871 50.1451 34.1706 50.0137 34.4822 49.8474ZM30.6621 49.8474L2.1045 34.3472V65.3536C2.09989 65.9473 2.27573 66.1995 2.8423 66.5266L30.7761 82.6102C31.0461 82.7644 31.2904 82.889 31.5184 82.9847L31.5227 50.2462C31.2554 50.1487 30.9726 50.0156 30.6621 49.8474Z" fill="white"/>
<path d="M30.663 47.5069C32.1138 48.3045 32.9874 48.3231 34.4822 47.5069L64.7957 31.02C64.5401 30.6022 64.1226 30.2765 63.4748 29.9223L52.6905 24.0569L34.4854 33.9583C33.007 34.7595 32.0465 34.708 30.6598 33.9583L12.4547 24.0569L1.67036 29.9223C1.00457 30.2797 0.586516 30.6091 0.33514 31.0122L30.663 47.5069Z" fill="#6D87D4"/>
<path d="M2.1045 34.3472L30.6621 49.8474C30.9726 50.0156 31.2554 50.1487 31.5227 50.2462L31.5184 82.9847C31.2904 82.889 31.0461 82.7644 30.7761 82.6102L2.8423 66.5266C2.27573 66.1995 2.09989 65.9473 2.1045 65.3536V34.3472Z" fill="white"/>
<path fill-rule="evenodd" clip-rule="evenodd" d="M36.6539 36.8381C34.913 36.8381 33.5018 38.2377 33.5018 39.9643C33.5018 41.6908 34.913 43.0905 36.6539 43.0905C38.3948 43.0905 39.806 41.6908 39.806 39.9643C39.806 38.2377 38.3948 36.8381 36.6539 36.8381ZM36.6539 39.1827C36.6539 38.7511 37.0067 38.4012 37.4419 38.4012C37.8771 38.4012 38.2299 38.7511 38.2299 39.1827C38.2299 39.6144 37.8771 39.9643 37.4419 39.9643C37.0067 39.9643 36.6539 39.6144 36.6539 39.1827Z" fill="black"/>
<path d="M37.4419 38.4012C37.0067 38.4012 36.6539 38.7511 36.6539 39.1827C36.6539 39.6144 37.0067 39.9643 37.4419 39.9643C37.8771 39.9643 38.2299 39.6144 38.2299 39.1827C38.2299 38.7511 37.8771 38.4012 37.4419 38.4012Z" fill="white"/>
<path fill-rule="evenodd" clip-rule="evenodd" d="M48.7745 30.3487C47.0336 30.3487 45.6223 31.7483 45.6223 33.4749C45.6223 35.2014 47.0336 36.6011 48.7745 36.6011C50.5153 36.6011 51.9266 35.2014 51.9266 33.4749C51.9266 31.7483 50.5153 30.3487 48.7745 30.3487ZM48.7745 32.6933C48.7745 32.2617 49.1273 31.9118 49.5625 31.9118C49.9977 31.9118 50.3505 32.2617 50.3505 32.6933C50.3505 33.125 49.9977 33.4749 49.5625 33.4749C49.1273 33.4749 48.7745 33.125 48.7745 32.6933Z" fill="black"/>
<path d="M49.5625 31.9118C49.1273 31.9118 48.7745 32.2617 48.7745 32.6933C48.7745 33.125 49.1273 33.4749 49.5625 33.4749C49.9977 33.4749 50.3505 33.125 50.3505 32.6933C50.3505 32.2617 49.9977 31.9118 49.5625 31.9118Z" fill="white"/>
<path d="M51.9218 30.0155C51.4286 29.0954 52.6655 28.4431 52.6655 28.4431L53.9025 27.7908C53.9025 27.7908 55.1394 27.1385 55.6327 28.0586C56.126 28.9787 54.889 29.631 54.889 29.631L53.6521 30.2833C53.6521 30.2833 52.4151 30.9356 51.9218 30.0155Z" fill="black"/>
<path d="M31.9248 40.9452C32.4181 41.8653 31.1812 42.5176 31.1812 42.5176L29.9442 43.1698C29.9442 43.1698 28.7072 43.8221 28.214 42.9021C27.7207 41.982 28.9576 41.3297 28.9576 41.3297L30.1946 40.6774C30.1946 40.6774 31.4316 40.0251 31.9248 40.9452Z" fill="black"/>
<path d="M95.8519 58.0543C94.9454 57.7219 94.6734 57.1322 95.036 56.2851L103.127 37.4359C103.467 36.7282 104 36.3744 104.725 36.3744H104.793C105.529 36.4065 106.028 36.7604 106.289 37.4359L114.516 56.2851C114.878 57.1322 114.618 57.7219 113.734 58.0543C112.839 58.3866 112.215 58.14 111.864 57.3144L110.028 53.1007H99.4385L97.6877 57.3144C97.3364 58.1508 96.7245 58.3974 95.8519 58.0543ZM100.56 50.3988H108.855L104.623 40.6525L100.56 50.3988Z" fill="white"/>
<path d="M122.563 56.1192V38.4059H121.844C121.844 38.4059 121.125 38.4161 121.125 37.3952C121.125 36.3744 121.844 36.3744 121.844 36.3744H126.16C126.16 36.3744 126.879 36.3744 126.879 37.3952C126.879 38.4161 126.16 38.4059 126.16 38.4059H125.419V56.1192H126.16C126.16 56.1192 126.891 56.1808 126.891 57.1613C126.891 58.1419 126.16 58.1969 126.16 58.1969H121.844C121.844 58.1969 121.109 58.1419 121.109 57.1613C121.109 56.1808 121.844 56.1192 121.844 56.1192H122.563Z" fill="white"/>
<path d="M95.8519 58.0543C94.9454 57.7219 94.6734 57.1322 95.036 56.2851L103.127 37.4359C103.467 36.7282 104 36.3744 104.725 36.3744H104.793C105.529 36.4065 106.028 36.7604 106.289 37.4359L114.516 56.2851C114.878 57.1322 114.618 57.7219 113.734 58.0543C112.839 58.3866 112.215 58.14 111.864 57.3144L110.028 53.1007H99.4385L97.6877 57.3144C97.3364 58.1508 96.7245 58.3974 95.8519 58.0543ZM100.56 50.3988H108.855L104.623 40.6525L100.56 50.3988Z" stroke="white" stroke-width="0.5"/>
<path d="M122.563 56.1192V38.4059H121.844C121.844 38.4059 121.125 38.4161 121.125 37.3952C121.125 36.3744 121.844 36.3744 121.844 36.3744H126.16C126.16 36.3744 126.879 36.3744 126.879 37.3952C126.879 38.4161 126.16 38.4059 126.16 38.4059H125.419V56.1192H126.16C126.16 56.1192 126.891 56.1808 126.891 57.1613C126.891 58.1419 126.16 58.1969 126.16 58.1969H121.844C121.844 58.1969 121.109 58.1419 121.109 57.1613C121.109 56.1808 121.844 56.1192 121.844 56.1192H122.563Z" stroke="white" stroke-width="0.5"/>
<path d="M136.476 47.8393C134.38 47.8393 133.122 47.0565 132.703 45.4911C132.601 45.0515 132.674 44.7192 132.924 44.494C133.173 44.2581 133.518 44.1402 133.96 44.1402C134.357 44.1402 134.612 44.2099 134.725 44.3492C134.85 44.4886 135.082 44.7835 135.422 45.2338C135.524 45.2767 135.655 45.3035 135.813 45.3142C135.983 45.3249 136.204 45.3303 136.476 45.3303H138.38C138.958 45.3303 139.315 45.2553 139.451 45.1051C139.598 44.955 139.672 44.6334 139.672 44.1402C139.672 43.6041 139.598 43.2717 139.451 43.143C139.315 43.0144 138.958 42.95 138.38 42.95H137.666C136.782 42.95 136.34 42.5211 136.34 41.6634C136.34 40.8271 136.782 40.4089 137.666 40.4089H138.278C138.709 40.4089 139.009 40.3124 139.179 40.1194C139.349 39.9157 139.434 39.6798 139.434 39.4118C139.434 38.9078 139.366 38.6023 139.23 38.495C139.094 38.3771 138.788 38.3181 138.312 38.3181H136.544C136.34 38.3181 136.17 38.3235 136.034 38.3342C135.898 38.3449 135.785 38.361 135.694 38.3825C135.411 38.6719 135.196 38.9186 135.048 39.1223C134.901 39.3153 134.64 39.4118 134.266 39.4118C133.722 39.4118 133.331 39.2938 133.094 39.0579C132.867 38.8113 132.805 38.4897 132.907 38.093C133.314 36.5704 134.527 35.8092 136.544 35.8092H138.312C139.57 35.8092 140.51 36.0987 141.134 36.6777C141.768 37.2459 142.085 38.0072 142.085 38.9614C142.085 39.7763 141.768 40.4357 141.134 40.9396C141.083 40.9793 141.031 41.0173 140.977 41.0535C141.875 41.6577 142.323 42.6866 142.323 44.1402C142.323 46.6062 141.009 47.8393 138.38 47.8393H136.476Z" fill="white"/>
</svg>
